<svg xmlns="http://www.w3.org/2000/svg" width="1024" height="1024" viewBox="0 0 1024 1024">
<defs>
<radialGradient id="body" cx="38%" cy="30%" r="85%">
<stop offset="0%" stop-color="#1c1c1e"></stop><stop offset="46%" stop-color="#101011"></stop><stop offset="100%" stop-color="#040404"></stop>
</radialGradient>
<radialGradient id="dialface" cx="42%" cy="36%" r="70%">
<stop offset="0%" stop-color="#161616"></stop><stop offset="100%" stop-color="#070707"></stop>
</radialGradient>
<linearGradient id="brassring" x1="0" y1="0" x2="1" y2="1">
<stop offset="0%" stop-color="#E4C580"></stop><stop offset="48%" stop-color="#C9A35B"></stop><stop offset="100%" stop-color="#8A6B33"></stop>
</linearGradient>
<filter id="glow" x="-50%" y="-50%" width="200%" height="200%"><feGaussianBlur stdDeviation="10"></feGaussianBlur></filter>
</defs>
<rect x="0" y="0" width="1024" height="1024" fill="url(#body)"></rect>
<ellipse cx="380" cy="250" rx="520" ry="300" fill="#ffffff" opacity="0.035"></ellipse>
<circle cx="512" cy="512" r="392" fill="none" stroke="rgba(255,255,255,0.06)" stroke-width="2"></circle>
<circle cx="512" cy="512" r="372" fill="none" stroke="url(#brassring)" stroke-width="9"></circle>
<circle cx="512" cy="512" r="330" fill="url(#dialface)" stroke="rgba(0,0,0,0.6)" stroke-width="2"></circle>
<line x1="512.00" y1="140.00" x2="512.00" y2="172.00" stroke="rgba(201,163,91,0.55)" stroke-width="7" stroke-linecap="round"></line><line x1="550.88" y1="142.04" x2="549.00" y2="159.94" stroke="rgba(201,163,91,0.26)" stroke-width="4" stroke-linecap="round"></line><line x1="589.34" y1="148.13" x2="585.60" y2="165.74" stroke="rgba(201,163,91,0.26)" stroke-width="4" stroke-linecap="round"></line><line x1="626.95" y1="158.21" x2="621.39" y2="175.33" stroke="rgba(201,163,91,0.26)" stroke-width="4" stroke-linecap="round"></line><line x1="663.31" y1="172.16" x2="655.98" y2="188.60" stroke="rgba(201,163,91,0.26)" stroke-width="4" stroke-linecap="round"></line><line x1="698.00" y1="189.84" x2="682.00" y2="217.55" stroke="rgba(201,163,91,0.55)" stroke-width="7" stroke-linecap="round"></line><line x1="730.66" y1="211.05" x2="720.08" y2="225.61" stroke="rgba(201,163,91,0.26)" stroke-width="4" stroke-linecap="round"></line><line x1="760.92" y1="235.55" x2="748.87" y2="248.93" stroke="rgba(201,163,91,0.26)" stroke-width="4" stroke-linecap="round"></line><line x1="788.45" y1="263.08" x2="775.07" y2="275.13" stroke="rgba(201,163,91,0.26)" stroke-width="4" stroke-linecap="round"></line><line x1="812.95" y1="293.34" x2="798.39" y2="303.92" stroke="rgba(201,163,91,0.26)" stroke-width="4" stroke-linecap="round"></line><line x1="834.16" y1="326.00" x2="806.45" y2="342.00" stroke="rgba(201,163,91,0.55)" stroke-width="7" stroke-linecap="round"></line><line x1="851.84" y1="360.69" x2="835.40" y2="368.02" stroke="rgba(201,163,91,0.26)" stroke-width="4" stroke-linecap="round"></line><line x1="865.79" y1="397.05" x2="848.67" y2="402.61" stroke="rgba(201,163,91,0.26)" stroke-width="4" stroke-linecap="round"></line><line x1="875.87" y1="434.66" x2="858.26" y2="438.40" stroke="rgba(201,163,91,0.26)" stroke-width="4" stroke-linecap="round"></line><line x1="881.96" y1="473.12" x2="864.06" y2="475.00" stroke="rgba(201,163,91,0.26)" stroke-width="4" stroke-linecap="round"></line><line x1="884.00" y1="512.00" x2="852.00" y2="512.00" stroke="rgba(201,163,91,0.55)" stroke-width="7" stroke-linecap="round"></line><line x1="881.96" y1="550.88" x2="864.06" y2="549.00" stroke="rgba(201,163,91,0.26)" stroke-width="4" stroke-linecap="round"></line><line x1="875.87" y1="589.34" x2="858.26" y2="585.60" stroke="rgba(201,163,91,0.26)" stroke-width="4" stroke-linecap="round"></line><line x1="865.79" y1="626.95" x2="848.67" y2="621.39" stroke="rgba(201,163,91,0.26)" stroke-width="4" stroke-linecap="round"></line><line x1="851.84" y1="663.31" x2="835.40" y2="655.98" stroke="rgba(201,163,91,0.26)" stroke-width="4" stroke-linecap="round"></line><line x1="834.16" y1="698.00" x2="806.45" y2="682.00" stroke="rgba(201,163,91,0.55)" stroke-width="7" stroke-linecap="round"></line><line x1="812.95" y1="730.66" x2="798.39" y2="720.08" stroke="rgba(201,163,91,0.26)" stroke-width="4" stroke-linecap="round"></line><line x1="788.45" y1="760.92" x2="775.07" y2="748.87" stroke="rgba(201,163,91,0.26)" stroke-width="4" stroke-linecap="round"></line><line x1="760.92" y1="788.45" x2="748.87" y2="775.07" stroke="rgba(201,163,91,0.26)" stroke-width="4" stroke-linecap="round"></line><line x1="730.66" y1="812.95" x2="720.08" y2="798.39" stroke="rgba(201,163,91,0.26)" stroke-width="4" stroke-linecap="round"></line><line x1="698.00" y1="834.16" x2="682.00" y2="806.45" stroke="rgba(201,163,91,0.55)" stroke-width="7" stroke-linecap="round"></line><line x1="663.31" y1="851.84" x2="655.98" y2="835.40" stroke="rgba(201,163,91,0.26)" stroke-width="4" stroke-linecap="round"></line><line x1="626.95" y1="865.79" x2="621.39" y2="848.67" stroke="rgba(201,163,91,0.26)" stroke-width="4" stroke-linecap="round"></line><line x1="589.34" y1="875.87" x2="585.60" y2="858.26" stroke="rgba(201,163,91,0.26)" stroke-width="4" stroke-linecap="round"></line><line x1="550.88" y1="881.96" x2="549.00" y2="864.06" stroke="rgba(201,163,91,0.26)" stroke-width="4" stroke-linecap="round"></line><line x1="512.00" y1="884.00" x2="512.00" y2="852.00" stroke="rgba(201,163,91,0.55)" stroke-width="7" stroke-linecap="round"></line><line x1="473.12" y1="881.96" x2="475.00" y2="864.06" stroke="rgba(201,163,91,0.26)" stroke-width="4" stroke-linecap="round"></line><line x1="434.66" y1="875.87" x2="438.40" y2="858.26" stroke="rgba(201,163,91,0.26)" stroke-width="4" stroke-linecap="round"></line><line x1="397.05" y1="865.79" x2="402.61" y2="848.67" stroke="rgba(201,163,91,0.26)" stroke-width="4" stroke-linecap="round"></line><line x1="360.69" y1="851.84" x2="368.02" y2="835.40" stroke="rgba(201,163,91,0.26)" stroke-width="4" stroke-linecap="round"></line><line x1="326.00" y1="834.16" x2="342.00" y2="806.45" stroke="rgba(201,163,91,0.55)" stroke-width="7" stroke-linecap="round"></line><line x1="293.34" y1="812.95" x2="303.92" y2="798.39" stroke="rgba(201,163,91,0.26)" stroke-width="4" stroke-linecap="round"></line><line x1="263.08" y1="788.45" x2="275.13" y2="775.07" stroke="rgba(201,163,91,0.26)" stroke-width="4" stroke-linecap="round"></line><line x1="235.55" y1="760.92" x2="248.93" y2="748.87" stroke="rgba(201,163,91,0.26)" stroke-width="4" stroke-linecap="round"></line><line x1="211.05" y1="730.66" x2="225.61" y2="720.08" stroke="rgba(201,163,91,0.26)" stroke-width="4" stroke-linecap="round"></line><line x1="189.84" y1="698.00" x2="217.55" y2="682.00" stroke="rgba(201,163,91,0.55)" stroke-width="7" stroke-linecap="round"></line><line x1="172.16" y1="663.31" x2="188.60" y2="655.98" stroke="rgba(201,163,91,0.26)" stroke-width="4" stroke-linecap="round"></line><line x1="158.21" y1="626.95" x2="175.33" y2="621.39" stroke="rgba(201,163,91,0.26)" stroke-width="4" stroke-linecap="round"></line><line x1="148.13" y1="589.34" x2="165.74" y2="585.60" stroke="rgba(201,163,91,0.26)" stroke-width="4" stroke-linecap="round"></line><line x1="142.04" y1="550.88" x2="159.94" y2="549.00" stroke="rgba(201,163,91,0.26)" stroke-width="4" stroke-linecap="round"></line><line x1="140.00" y1="512.00" x2="172.00" y2="512.00" stroke="rgba(201,163,91,0.55)" stroke-width="7" stroke-linecap="round"></line><line x1="142.04" y1="473.12" x2="159.94" y2="475.00" stroke="rgba(201,163,91,0.26)" stroke-width="4" stroke-linecap="round"></line><line x1="148.13" y1="434.66" x2="165.74" y2="438.40" stroke="rgba(201,163,91,0.26)" stroke-width="4" stroke-linecap="round"></line><line x1="158.21" y1="397.05" x2="175.33" y2="402.61" stroke="rgba(201,163,91,0.26)" stroke-width="4" stroke-linecap="round"></line><line x1="172.16" y1="360.69" x2="188.60" y2="368.02" stroke="rgba(201,163,91,0.26)" stroke-width="4" stroke-linecap="round"></line><line x1="189.84" y1="326.00" x2="217.55" y2="342.00" stroke="rgba(201,163,91,0.55)" stroke-width="7" stroke-linecap="round"></line><line x1="211.05" y1="293.34" x2="225.61" y2="303.92" stroke="rgba(201,163,91,0.26)" stroke-width="4" stroke-linecap="round"></line><line x1="235.55" y1="263.08" x2="248.93" y2="275.13" stroke="rgba(201,163,91,0.26)" stroke-width="4" stroke-linecap="round"></line><line x1="263.08" y1="235.55" x2="275.13" y2="248.93" stroke="rgba(201,163,91,0.26)" stroke-width="4" stroke-linecap="round"></line><line x1="293.34" y1="211.05" x2="303.92" y2="225.61" stroke="rgba(201,163,91,0.26)" stroke-width="4" stroke-linecap="round"></line><line x1="326.00" y1="189.84" x2="342.00" y2="217.55" stroke="rgba(201,163,91,0.55)" stroke-width="7" stroke-linecap="round"></line><line x1="360.69" y1="172.16" x2="368.02" y2="188.60" stroke="rgba(201,163,91,0.26)" stroke-width="4" stroke-linecap="round"></line><line x1="397.05" y1="158.21" x2="402.61" y2="175.33" stroke="rgba(201,163,91,0.26)" stroke-width="4" stroke-linecap="round"></line><line x1="434.66" y1="148.13" x2="438.40" y2="165.74" stroke="rgba(201,163,91,0.26)" stroke-width="4" stroke-linecap="round"></line><line x1="473.12" y1="142.04" x2="475.00" y2="159.94" stroke="rgba(201,163,91,0.26)" stroke-width="4" stroke-linecap="round"></line>
<circle cx="512" cy="512" r="200" fill="none" stroke="rgba(255,255,255,0.07)" stroke-width="2"></circle>
<circle cx="512" cy="512" r="150" fill="#0a0a0a" stroke="rgba(201,163,91,0.22)" stroke-width="2"></circle>
<circle cx="512" cy="512" r="14" fill="rgba(201,163,91,0.5)"></circle>
<line x1="512" y1="96" x2="512" y2="182" stroke="#C9A35B" stroke-width="16" stroke-linecap="round" opacity="0.5" filter="url(#glow)"></line>
<line x1="512" y1="96" x2="512" y2="182" stroke="#C9A35B" stroke-width="16" stroke-linecap="round"></line>
</svg>